# Blender 4.3.2
# www.blender.org
o FL_foot_constraints_in_FR_foot_reduced.obj
v -0.408131 0.864457 -0.153702
v -0.623738 0.507093 -0.526663
v 1.185131 0.099165 -0.029932
v 0.719810 0.804550 0.244320
v -0.908472 0.087151 -0.426192
v 0.979377 0.650763 -0.212747
v -0.962164 0.579776 0.321874
v 1.086441 0.309885 0.349974
v -0.759602 0.167976 0.490967
v 0.523828 0.205784 0.583705
v 0.750651 0.174948 -0.566931
v -1.230371 0.327528 -0.193801
v -1.057947 0.138368 0.263609
v -0.222583 -0.086049 0.077548
vn -0.6076 0.0271 0.7938
vn -0.9050 0.1435 0.4005
vn 0.1342 -0.9895 0.0530
vn -0.1010 0.9011 0.4218
vn 0.0957 0.6251 -0.7747
vn 0.3600 -0.7730 0.5223
vn 0.2878 0.3992 0.8705
vn 0.8509 0.5052 0.1442
vn -0.5080 0.1412 -0.8497
vn -0.2319 -0.9650 0.1227
vn -0.0117 -0.8587 0.5124
vn -0.0443 0.4488 0.8925
vn -0.0734 -0.1847 -0.9800
vn 0.7804 0.0859 -0.6193
vn -0.6328 -0.7702 -0.0799
vn 0.0199 -0.9368 -0.3493
vn 0.1374 0.9598 -0.2449
vn -0.5162 0.8110 -0.2753
s 0
f 7//1 13//1 9//1
f 7//2 12//2 13//2
f 10//3 14//3 11//3 3//3
f 1//4 7//4 4//4
f 2//5 1//5 6//5 11//5
f 8//6 10//6 3//6
f 10//7 8//7 4//7
f 8//8 3//8 6//8 4//8
f 12//9 2//9 5//9
f 13//10 5//10 14//10 9//10
f 10//11 9//11 14//11
f 7//12 9//12 10//12 4//12
f 5//13 2//13 11//13
f 6//14 3//14 11//14
f 13//15 12//15 5//15
f 14//16 5//16 11//16
f 1//17 4//17 6//17
f 12//18 7//18 1//18 2//18
