# Blender 4.3.0
# www.blender.org
o FL_foot_constraints_in_FR_foot_reduced.obj
v 0.666309 0.791836 0.368924
v -0.868818 0.203807 0.455756
v -0.150073 1.048740 -0.038695
v 0.821647 0.244550 -0.513063
v -0.500144 0.349110 -0.544942
v -1.285094 0.318340 0.029227
v 1.063127 0.717064 -0.011728
v -0.940992 0.633722 0.375817
v -0.847817 0.115931 -0.392755
v 0.630634 0.696598 -0.358270
v 1.269247 0.422403 -0.057409
v -0.907535 0.782867 -0.378196
v 0.849066 0.191741 0.517519
v 1.134703 0.078883 0.113644
vn -0.0361 -0.9881 0.1495
vn 0.2611 0.9617 0.0833
vn -0.7142 0.0102 0.6998
vn 0.8124 -0.0282 0.5824
vn -0.0731 0.7711 0.6325
vn 0.6765 0.3674 0.6383
vn 0.7025 -0.5181 -0.4879
vn 0.2528 0.8947 -0.3683
vn 0.0537 -0.9585 -0.2802
vn -0.3472 -0.9337 0.0881
vn -0.5891 -0.0351 -0.8073
vn -0.0209 -0.5243 -0.8512
vn 0.0427 0.5716 -0.8194
vn -0.0254 0.2105 0.9773
vn -0.3906 0.9062 0.1619
vn -0.7261 0.6799 0.1023
vn 0.0497 0.3423 -0.9383
vn 0.5334 0.4721 -0.7019
s 0
f 13//1 2//1 9//1 14//1
f 1//2 7//2 3//2
f 8//3 6//3 2//3
f 11//4 13//4 14//4
f 1//5 3//5 8//5
f 1//6 13//6 11//6 7//6
f 11//7 14//7 4//7
f 3//8 7//8 10//8
f 4//9 14//9 9//9
f 2//10 6//10 9//10
f 6//11 12//11 5//11 9//11
f 4//12 9//12 5//12
f 3//13 10//13 5//13 12//13
f 13//14 1//14 8//14 2//14
f 8//15 3//15 12//15
f 6//16 8//16 12//16
f 10//17 4//17 5//17
f 11//18 4//18 10//18 7//18
