# Blender 4.3.2
# www.blender.org
o FL_foot_constraints_in_RR_foot_reduced.obj
v 1.014054 0.988966 0.080221
v 0.434617 0.009450 -0.532777
v -0.479070 0.165436 0.004337
v 1.686111 0.258780 0.504207
v -0.125095 0.396090 -0.502773
v 0.296855 0.075460 0.516066
v 1.568002 0.572750 -0.419540
v 0.417094 0.871106 -0.186684
v 1.704419 -0.040224 0.150743
v -0.285288 0.517289 0.357995
v 1.640299 0.766622 -0.039874
v 1.965099 0.129643 -0.009196
v 1.554658 0.102933 -0.423932
v 1.442332 0.677763 0.379797
vn 0.2117 0.8535 -0.4761
vn -0.2875 0.9291 0.2328
vn -0.5297 -0.4382 0.7262
vn -0.0543 0.4644 0.8840
vn -0.0136 -0.9988 -0.0474
vn 0.6669 -0.5515 0.5011
vn 0.0962 0.0066 -0.9953
vn 0.0354 0.1281 -0.9911
vn 0.3726 0.8565 0.3571
vn 0.0952 0.8143 -0.5726
vn 0.3750 -0.8719 -0.3149
vn -0.0274 0.2699 0.9625
vn -0.4699 -0.6325 -0.6157
vn 0.1053 -0.7565 0.6454
vn -0.1433 -0.9887 0.0434
vn -0.0189 0.5688 -0.8223
vn 0.8073 0.2141 -0.5500
vn -0.6320 0.7425 -0.2222
vn 0.7889 0.4810 0.3825
s 0
f 1//1 11//1 7//1
f 1//2 8//2 10//2
f 10//3 3//3 6//3
f 14//4 1//4 10//4 6//4
f 9//5 6//5 2//5 13//5
f 12//6 4//6 9//6
f 7//7 13//7 2//7
f 5//8 7//8 2//8
f 11//9 1//9 14//9
f 8//10 1//10 7//10
f 12//11 9//11 13//11
f 4//12 14//12 6//12
f 3//13 5//13 2//13
f 9//14 4//14 6//14
f 6//15 3//15 2//15
f 8//16 7//16 5//16
f 12//17 13//17 7//17 11//17
f 10//18 8//18 5//18 3//18
f 12//19 11//19 14//19 4//19
