# Blender 4.3.2
# www.blender.org
o FR_foot_constraints_in_RL_foot_reduced.obj
v 1.372479 -0.151307 -0.413105
v 0.744463 -1.127312 -0.216726
v -0.270978 -0.813559 0.194331
v 1.816453 -0.851127 0.030306
v 1.662630 -0.530083 -0.555336
v 1.056904 -0.215924 0.572679
v -0.026888 -0.583498 0.500045
v -0.405062 -0.405050 0.320431
v -0.136558 -0.634140 -0.491993
v 1.087276 -0.952388 0.393337
v 1.619579 -0.776255 0.403590
v 1.982008 -0.307502 0.037071
v -0.417056 -0.361184 -0.106472
vn -0.1331 0.5507 -0.8240
vn 0.0587 -0.2339 0.9705
vn 0.2122 -0.9645 0.1573
vn 0.5032 0.2562 0.8253
vn -0.1588 -0.8613 0.4826
vn -0.5412 -0.4051 0.7369
vn -0.2076 0.4396 0.8739
vn 0.8318 -0.2594 0.4907
vn -0.3914 -0.8687 -0.3037
vn 0.0149 -0.2360 0.9716
vn 0.1646 0.9794 0.1169
vn 0.2904 -0.8971 0.3331
vn 0.3234 -0.7914 -0.5188
vn -0.0023 -0.4905 -0.8714
vn 0.5592 0.6305 -0.5383
vn -0.8946 -0.4088 -0.1804
vn 0.8868 -0.2654 -0.3784
vn -0.1208 0.9914 0.0502
s 0
f 9//1 13//1 1//1 5//1
f 10//2 11//2 6//2
f 10//3 2//3 4//3
f 6//4 11//4 12//4
f 7//5 3//5 2//5 10//5
f 7//6 8//6 3//6
f 8//7 7//7 6//7
f 11//8 4//8 12//8
f 3//9 9//9 2//9
f 7//10 10//10 6//10
f 6//11 12//11 1//11
f 11//12 10//12 4//12
f 4//13 2//13 5//13
f 2//14 9//14 5//14
f 1//15 12//15 5//15
f 3//16 8//16 13//16 9//16
f 12//17 4//17 5//17
f 13//18 8//18 6//18 1//18
