# Blender 4.3.0
# www.blender.org
o FR_foot_constraints_in_RR_foot_reduced.obj
v -0.008668 -0.145777 0.467952
v 0.002314 0.458255 -0.178310
v 1.750612 -0.118945 0.389335
v 0.242276 0.395385 0.289826
v 1.247548 0.296794 -0.544805
v 0.017516 -0.094592 -0.470077
v 1.482988 0.470403 0.274889
v 1.500746 -0.260448 -0.446390
v 0.286490 -0.466317 -0.132400
v 1.846526 0.101971 -0.314015
v 1.675648 -0.449510 -0.061593
v 1.952410 -0.032735 0.064272
v 0.946640 -0.281390 0.563837
v 0.393310 0.551083 -0.189362
vn -0.1680 -0.9015 0.3988
vn 0.0819 0.9965 -0.0191
vn 0.0339 -0.8908 -0.4531
vn 0.7472 -0.5891 0.3076
vn 0.7111 0.4308 0.5557
vn -0.7454 0.4932 0.4483
vn -0.0350 -0.4407 -0.8970
vn -0.1971 0.4533 -0.8693
vn -0.0015 -0.9661 0.2580
vn -0.0247 0.3529 0.9353
vn -0.9544 -0.2955 -0.0428
vn -0.1601 0.5793 -0.7992
vn 0.5403 0.8219 -0.1806
vn 0.2776 -0.7962 0.5376
vn 0.3591 -0.0017 -0.9333
vn 0.1554 0.2559 0.9541
vn -0.2179 0.9463 0.2388
vn 0.7589 -0.4504 -0.4703
s 0
f 1//1 9//1 13//1
f 14//2 4//2 7//2 5//2
f 11//3 9//3 8//3
f 11//4 12//4 3//4
f 3//5 12//5 7//5
f 1//6 4//6 2//6
f 9//7 6//7 5//7 8//7
f 6//8 2//8 5//8
f 9//9 11//9 13//9
f 1//10 13//10 7//10 4//10
f 1//11 2//11 6//11 9//11
f 2//12 14//12 5//12
f 12//13 10//13 5//13 7//13
f 13//14 11//14 3//14
f 10//15 8//15 5//15
f 13//16 3//16 7//16
f 4//17 14//17 2//17
f 11//18 8//18 10//18 12//18
