# Blender 4.3.0
# www.blender.org
o FR_foot_constraints_in_FL_foot_reduced.obj
v -0.666309 -0.791836 -0.368924
v 0.868818 -0.203807 -0.455756
v 0.150073 -1.048740 0.038695
v -0.821647 -0.244550 0.513063
v 0.500144 -0.349110 0.544942
v 1.285094 -0.318340 -0.029227
v -1.063127 -0.717064 0.011728
v 0.940992 -0.633722 -0.375817
v 0.847817 -0.115931 0.392755
v -0.630634 -0.696598 0.358270
v -1.269247 -0.422403 0.057409
v 0.907535 -0.782867 0.378196
v -0.849066 -0.191741 -0.517519
v -1.134703 -0.078883 -0.113644
vn -0.0427 -0.5716 0.8194
vn -0.0497 -0.3423 0.9383
vn 0.3906 -0.9062 -0.1619
vn 0.7142 -0.0102 -0.6998
vn -0.2528 -0.8947 0.3683
vn 0.0731 -0.7711 -0.6325
vn 0.3472 0.9337 -0.0881
vn -0.6765 -0.3674 -0.6383
vn 0.0209 0.5243 0.8512
vn -0.7025 0.5181 0.4879
vn 0.7261 -0.6799 -0.1023
vn 0.5891 0.0351 0.8073
vn -0.0537 0.9585 0.2802
vn 0.0254 -0.2105 -0.9773
vn -0.2611 -0.9617 -0.0833
vn -0.8124 0.0282 -0.5824
vn 0.0361 0.9881 -0.1495
vn -0.5334 -0.4721 0.7019
s 0
f 12//1 5//1 10//1 3//1
f 5//2 4//2 10//2
f 12//3 3//3 8//3
f 6//4 8//4 2//4
f 3//5 10//5 7//5
f 8//6 3//6 1//6
f 9//7 6//7 2//7
f 7//8 11//8 13//8 1//8
f 5//9 9//9 4//9
f 4//10 14//10 11//10
f 6//11 12//11 8//11
f 12//12 6//12 9//12 5//12
f 4//13 9//13 14//13
f 8//14 1//14 13//14 2//14
f 3//15 7//15 1//15
f 11//16 14//16 13//16
f 9//17 2//17 13//17 14//17
f 10//18 4//18 11//18 7//18
