# Blender 4.3.2
# www.blender.org
o RL_foot_constraints_in_RR_foot_reduced.obj
v -0.668311 0.145388 0.536582
v 0.627892 -0.048334 -0.276048
v -0.940109 0.703335 -0.010332
v 0.785501 0.174269 0.498804
v 0.057560 1.090793 0.001440
v -0.676053 0.220125 -0.527223
v -1.262843 0.275343 -0.058286
v 1.212421 0.119515 -0.086273
v -1.006018 -0.038775 0.330092
v -0.734166 0.594370 0.467262
v 0.816340 0.271835 -0.504638
v -0.103193 0.753969 -0.384159
v 0.932515 0.734600 0.156031
v -0.599165 -0.039333 -0.251417
vn 0.0098 -0.6575 -0.7534
vn 0.0318 -0.7712 0.6358
vn -0.5408 0.0503 0.8396
vn 0.1103 0.5403 0.8342
vn 0.7087 0.5132 -0.4841
vn -0.4857 -0.7674 -0.4187
vn -0.2953 0.7771 -0.5558
vn -0.4270 0.5414 -0.7243
vn 0.0582 -0.9833 0.1725
vn 0.8060 0.1403 0.5750
vn 0.0059 0.2530 -0.9675
vn 0.1976 -0.9521 0.2333
vn -0.7581 0.3263 0.5646
vn 0.3959 -0.6764 -0.6211
vn -0.3431 0.8728 0.3471
vn 0.0226 0.1558 0.9875
vn 0.3397 0.7017 -0.6262
s 0
f 14//1 6//1 11//1 2//1
f 1//2 9//2 4//2
f 9//3 1//3 10//3
f 10//4 4//4 13//4 5//4
f 8//5 11//5 13//5
f 14//6 9//6 7//6 6//6
f 12//7 3//7 5//7
f 6//8 7//8 3//8 12//8
f 9//9 14//9 2//9 4//9
f 4//10 8//10 13//10
f 6//11 12//11 11//11
f 2//12 8//12 4//12
f 7//13 9//13 10//13 3//13
f 8//14 2//14 11//14
f 3//15 10//15 5//15
f 1//16 4//16 10//16
f 11//17 12//17 5//17 13//17
