# Blender 4.3.2
# www.blender.org
o RL_foot_constraints_in_FR_foot_reduced.obj
v -1.372479 -0.048693 0.413105
v -0.744463 0.927312 0.216726
v 0.270978 0.613559 -0.194331
v -1.816453 0.651127 -0.030306
v -1.662630 0.330083 0.555336
v -1.056904 0.015924 -0.572679
v 0.026888 0.383499 -0.500045
v 0.405062 0.205050 -0.320431
v 0.136558 0.434140 0.491993
v -1.087276 0.752388 -0.393337
v -1.619579 0.576255 -0.403590
v -1.982008 0.107502 -0.037071
v 0.417056 0.161184 0.106472
vn 0.0023 0.4905 0.8714
vn -0.2122 0.9645 -0.1573
vn -0.2904 0.8971 -0.3331
vn -0.5592 -0.6305 0.5383
vn 0.1331 -0.5507 0.8240
vn -0.8868 0.2654 0.3784
vn 0.3914 0.8687 0.3037
vn -0.8318 0.2594 -0.4907
vn -0.5032 -0.2562 -0.8253
vn 0.5412 0.4051 -0.7369
vn 0.8946 0.4088 0.1804
vn -0.0587 0.2339 -0.9705
vn 0.1588 0.8613 -0.4826
vn -0.3234 0.7914 0.5188
vn -0.0149 0.2360 -0.9716
vn -0.1646 -0.9794 -0.1169
vn 0.2076 -0.4396 -0.8739
vn 0.1208 -0.9914 -0.0502
s 0
f 2//1 5//1 9//1
f 4//2 2//2 10//2
f 4//3 10//3 11//3
f 5//4 12//4 1//4
f 9//5 5//5 1//5 13//5
f 5//6 4//6 12//6
f 2//7 9//7 3//7
f 4//8 11//8 12//8
f 12//9 11//9 6//9
f 3//10 8//10 7//10
f 3//11 9//11 13//11 8//11
f 11//12 10//12 6//12
f 2//13 3//13 7//13 10//13
f 2//14 4//14 5//14
f 10//15 7//15 6//15
f 1//16 12//16 6//16
f 7//17 8//17 6//17
f 13//18 1//18 6//18 8//18
