# Blender 4.3.2
# www.blender.org
o RR_foot_constraints_in_FR_foot_reduced.obj
v -1.518749 -0.587682 -0.262452
v -0.070170 0.023823 -0.517329
v -0.070685 0.250952 -0.070893
v -1.325631 0.372027 0.068680
v -0.029936 -0.625940 0.021184
v -0.042557 0.084250 0.392692
v -1.954058 0.114608 -0.040405
v -1.350630 0.154439 0.455035
v -0.017612 -0.306549 -0.443572
v -0.021323 -0.208380 0.513196
v -1.506186 0.145119 -0.510844
v -1.615755 -0.353725 0.453127
v -1.048274 -0.466280 0.537066
v -1.896796 -0.238622 0.035074
vn -0.5882 -0.7889 0.1782
vn -0.2260 -0.9345 0.2749
vn 0.2026 -0.7484 0.6316
vn -0.0604 -0.9810 0.1845
vn 0.0861 -0.8222 -0.5627
vn -0.1332 0.0658 0.9889
vn -0.6906 0.2253 0.6872
vn -0.3286 0.9097 -0.2538
vn 0.9938 0.1088 -0.0212
vn 0.9999 0.0166 0.0022
vn 0.0181 0.2226 0.9748
vn -0.0452 -0.2912 -0.9556
vn 0.0595 0.9089 -0.4127
vn 0.9874 0.1413 -0.0707
vn -0.4052 0.8076 0.4286
vn -0.7087 -0.2282 -0.6675
vn 0.0999 0.9068 0.4096
s 0
f 12//1 14//1 1//1
f 13//2 12//2 1//2
f 13//3 5//3 10//3
f 13//4 1//4 5//4
f 5//5 1//5 9//5
f 12//6 13//6 8//6
f 12//7 8//7 7//7 14//7
f 7//8 4//8 11//8
f 6//9 9//9 3//9
f 10//10 5//10 9//10 6//10
f 8//11 13//11 10//11 6//11
f 1//12 11//12 2//12 9//12
f 11//13 4//13 3//13 2//13
f 3//14 9//14 2//14
f 7//15 8//15 4//15
f 14//16 7//16 11//16 1//16
f 4//17 8//17 6//17 3//17
